# xmcd
#
# Track frame offsets:
#	150
#	21935
#	40970
#	58900
#	78405
#	98825
#	114670
#	133235
#	149610
#	167665
#	191155
#	208720
#
# Disc length: 3032 seconds
#
# Revision: 1
# Processed by: cddbd v1.5.1PL0 Copyright (c) Steve Scherf et al.
# Submitted via: EasyCDDAExtractor 7.1.0.1
#
DISCID=b60bd60c
DTITLE=Varios - California 20 Anos da Canção Nativa do RS
DYEAR=1900
DGENRE=Country
TTITLE0=Descaminho
TTITLE1=Pra Onde Ir
TTITLE2=Provinciano
TTITLE3=Negro de Trinta e Cinco
TTITLE4=Pampa Pietá
TTITLE5=Flor de Campeira
TTITLE6=Guri
TTITLE7=Grito dos Livres
TTITLE8=Esteio e Sonho
TTITLE9=Tropeiro do Futuro
TTITLE10=Solfejo de Prata
TTITLE11=Mi Vim Dimbora
EXTD=
EXTT0=
EXTT1=
EXTT2=
EXTT3=
EXTT4=
EXTT5=
EXTT6=
EXTT7=
EXTT8=
EXTT9=
EXTT10=
EXTT11=
PLAYORDER=
